STARTFONT 2.1
COMMENT $XConsortium: luIS12.bdf,v 1.7 94/04/02 16:23:27 gildea Exp $
COMMENT  (c) Copyright Bigelow & Holmes 1986, 1985. Lucida is a registered
COMMENT  trademark of Bigelow & Holmes. See LEGAL NOTICE file for terms 
COMMENT  of the license. 
COMMENT  
COMMENT  Translation to ISO8859-2 by Cub Soft;  Petr.Kolar@vslib.cz
COMMENT  
FONT -B&H-Lucida-Medium-I-Normal-Sans-17-120-100-100-P-97-ISO8859-2
SIZE 12 100 100
FONTBOUNDINGBOX 32 19 -10 -3
STARTPROPERTIES 20
COMMENT Begin LogicalFontDescription
FONTNAME_REGISTRY ""
FOUNDRY "B&H"
FAMILY_NAME "Lucida"
WEIGHT_NAME "Medium"
SLANT "I"
SETWIDTH_NAME "Normal"
ADD_STYLE_NAME "Sans"
PIXEL_SIZE 17
POINT_SIZE 120
RESOLUTION_X 100
RESOLUTION_Y 100
SPACING "P"
AVERAGE_WIDTH 97
CHARSET_REGISTRY "ISO8859"
CHARSET_ENCODING "2"
COMMENT END LogicalFontDescription
FONT_ASCENT 15
FONT_DESCENT 4
DEFAULT_CHAR 0
COPYRIGHT "Copyright Bigelow & Holmes 1986, 1985., Copyright 1996 Cub Soft"
FACE_NAME "Lucida Sans Italic"
ENDPROPERTIES
CHARS 191
STARTCHAR space
ENCODING 32
SWIDTH 316 0
DWIDTH 5 0
BBX 1 1 0 0
BITMAP
00
ENDCHAR
STARTCHAR exclam
ENCODING 33
SWIDTH 193 0
DWIDTH 5 0
BBX 4 12 2 0
BITMAP
30
30
20
20
60
60
60
40
40
00
c0
c0
ENDCHAR
STARTCHAR quotedbl
ENCODING 34
SWIDTH 361 0
DWIDTH 6 0
BBX 5 4 3 8
BITMAP
d8
d8
d8
d8
ENDCHAR
STARTCHAR numbersign
ENCODING 35
SWIDTH 633 0
DWIDTH 11 0
BBX 11 12 1 0
BITMAP
0360
06c0
04c0
7fe0
7fe0
1900
1300
ffc0
ffc0
2600
4c00
dc00
ENDCHAR
STARTCHAR dollar
ENCODING 36
SWIDTH 633 0
DWIDTH 11 0
BBX 9 14 2 -1
BITMAP
0400
1f80
3f80
7400
2c00
3800
0800
0c00
1e00
1b00
1200
f600
fc00
1000
ENDCHAR
STARTCHAR percent
ENCODING 37
SWIDTH 741 0
DWIDTH 13 0
BBX 14 12 1 0
BITMAP
1c1c
3e30
6260
7ec0
3980
03f0
07f0
0d90
1910
3330
61f0
c1e0
ENDCHAR
STARTCHAR ampersand
ENCODING 38
SWIDTH 701 0
DWIDTH 12 0
BBX 12 12 1 0
BITMAP
03c0
07e0
0c60
0cc0
0f80
3e00
7630
c330
c3e0
e1c0
7fc0
3ce0
ENDCHAR
STARTCHAR apostrophe
ENCODING 39
SWIDTH 217 0
DWIDTH 4 0
BBX 3 4 2 8
BITMAP
60
60
60
c0
ENDCHAR
STARTCHAR parenleft
ENCODING 40
SWIDTH 325 0
DWIDTH 6 0
BBX 6 15 2 -3
BITMAP
04
08
10
30
60
60
c0
c0
c0
c0
c0
c0
c0
60
20
ENDCHAR
STARTCHAR parenright
ENCODING 41
SWIDTH 325 0
DWIDTH 6 0
BBX 6 15 0 -3
BITMAP
10
18
18
0c
0c
0c
0c
0c
08
18
18
30
60
c0
80
ENDCHAR
STARTCHAR asterisk
ENCODING 42
SWIDTH 470 0
DWIDTH 8 0
BBX 6 6 3 6
BITMAP
10
10
fc
30
d0
98
ENDCHAR
STARTCHAR plus
ENCODING 43
SWIDTH 633 0
DWIDTH 11 0
BBX 10 10 1 0
BITMAP
0600
0600
0c00
0c00
ffc0
ffc0
0c00
0c00
1800
1800
ENDCHAR
STARTCHAR comma
ENCODING 44
SWIDTH 316 0
DWIDTH 5 0
BBX 3 5 1 -3
BITMAP
60
60
60
40
c0
ENDCHAR
STARTCHAR minus
ENCODING 45
SWIDTH 633 0
DWIDTH 11 0
BBX 10 2 1 4
BITMAP
ffc0
ffc0
ENDCHAR
STARTCHAR period
ENCODING 46
SWIDTH 316 0
DWIDTH 5 0
BBX 2 2 2 0
BITMAP
c0
c0
ENDCHAR
STARTCHAR slash
ENCODING 47
SWIDTH 482 0
DWIDTH 8 0
BBX 11 15 0 -3
BITMAP
0060
00c0
00c0
0180
0100
0300
0600
0400
0c00
1800
1000
3000
6000
6000
c000
ENDCHAR
STARTCHAR zero
ENCODING 48
SWIDTH 633 0
DWIDTH 11 0
BBX 10 12 2 0
BITMAP
0f00
1f80
3180
60c0
60c0
c080
c180
c180
c300
e700
7e00
3c00
ENDCHAR
STARTCHAR one
ENCODING 49
SWIDTH 633 0
DWIDTH 11 0
BBX 4 12 5 0
BITMAP
f0
f0
30
20
20
60
60
60
40
40
c0
c0
ENDCHAR
STARTCHAR two
ENCODING 50
SWIDTH 633 0
DWIDTH 11 0
BBX 9 12 2 0
BITMAP
1f00
3f80
2180
0180
0180
0700
0e00
1800
3000
6000
fe00
fe00
ENDCHAR
STARTCHAR three
ENCODING 51
SWIDTH 633 0
DWIDTH 11 0
BBX 9 12 2 0
BITMAP
1f00
3f80
0180
0180
0300
3c00
3f00
0700
0300
8700
fe00
fc00
ENDCHAR
STARTCHAR four
ENCODING 52
SWIDTH 633 0
DWIDTH 11 0
BBX 9 12 1 0
BITMAP
0380
0780
0700
0d00
1b00
3300
6200
ff80
ff80
0600
0600
0600
ENDCHAR
STARTCHAR five
ENCODING 53
SWIDTH 633 0
DWIDTH 11 0
BBX 9 12 2 0
BITMAP
1f80
3f80
2000
2000
3c00
3e00
0700
0300
0300
0600
fe00
f800
ENDCHAR
STARTCHAR six
ENCODING 54
SWIDTH 633 0
DWIDTH 11 0
BBX 10 12 2 0
BITMAP
0780
1fc0
3840
6000
7f00
ff00
e180
c180
c180
e300
7e00
3c00
ENDCHAR
STARTCHAR seven
ENCODING 55
SWIDTH 633 0
DWIDTH 11 0
BBX 9 12 3 0
BITMAP
3f80
7f80
0380
0700
0e00
1c00
3800
3000
7000
6000
c000
c000
ENDCHAR
STARTCHAR eight
ENCODING 56
SWIDTH 633 0
DWIDTH 11 0
BBX 10 12 2 0
BITMAP
0f00
1f80
30c0
3080
3380
3e00
7f00
e180
c180
c380
ff00
7c00
ENDCHAR
STARTCHAR nine
ENCODING 57
SWIDTH 633 0
DWIDTH 11 0
BBX 10 12 2 0
BITMAP
0f00
3f80
31c0
60c0
60c0
61c0
7f80
3d80
0300
8700
fe00
7800
ENDCHAR
STARTCHAR colon
ENCODING 58
SWIDTH 316 0
DWIDTH 5 0
BBX 3 9 2 0
BITMAP
60
60
00
00
00
00
00
c0
c0
ENDCHAR
STARTCHAR semicolon
ENCODING 59
SWIDTH 316 0
DWIDTH 5 0
BBX 4 12 1 -3
BITMAP
30
30
00
00
00
00
00
60
40
40
40
80
ENDCHAR
STARTCHAR less
ENCODING 60
SWIDTH 633 0
DWIDTH 11 0
BBX 12 10 2 0
BITMAP
0010
00f0
03c0
0f00
3800
f800
1e00
0780
03c0
00c0
ENDCHAR
STARTCHAR equal
ENCODING 61
SWIDTH 633 0
DWIDTH 11 0
BBX 11 5 1 2
BITMAP
7fe0
7fe0
0000
ffc0
ffc0
ENDCHAR
STARTCHAR greater
ENCODING 62
SWIDTH 633 0
DWIDTH 11 0
BBX 12 10 0 0
BITMAP
3000
3800
1e00
0780
01f0
01c0
0f00
3c00
f000
8000
ENDCHAR
STARTCHAR question
ENCODING 63
SWIDTH 464 0
DWIDTH 8 0
BBX 7 12 2 0
BITMAP
7c
7e
86
06
0c
18
30
60
60
00
c0
c0
ENDCHAR
STARTCHAR at
ENCODING 64
SWIDTH 858 0
DWIDTH 15 0
BBX 14 12 2 0
BITMAP
07e0
1ff0
3818
63cc
4fc4
888c
998c
9ef8
ccf0
6080
7f80
1e00
ENDCHAR
STARTCHAR A
ENCODING 65
SWIDTH 687 0
DWIDTH 12 0
BBX 11 12 0 0
BITMAP
0380
0380
0780
0680
0cc0
18c0
18c0
3fc0
3fc0
60e0
6060
c060
ENDCHAR
STARTCHAR B
ENCODING 66
SWIDTH 593 0
DWIDTH 10 0
BBX 9 12 1 0
BITMAP
3f00
3f80
3180
3180
2300
7e00
7f00
6300
6380
4300
ff00
fc00
ENDCHAR
STARTCHAR C
ENCODING 67
SWIDTH 679 0
DWIDTH 12 0
BBX 11 12 2 0
BITMAP
07c0
1fe0
3820
7000
6000
e000
c000
c000
c000
e080
7f80
3e00
ENDCHAR
STARTCHAR D
ENCODING 68
SWIDTH 743 0
DWIDTH 13 0
BBX 12 12 1 0
BITMAP
3fc0
3fe0
3070
3030
2030
6030
6030
6060
40e0
41c0
ff80
fe00
ENDCHAR
STARTCHAR E
ENCODING 69
SWIDTH 547 0
DWIDTH 9 0
BBX 9 12 2 0
BITMAP
3f80
3f80
3000
2000
6000
7e00
7e00
6000
4000
c000
fe00
fe00
ENDCHAR
STARTCHAR F
ENCODING 70
SWIDTH 536 0
DWIDTH 9 0
BBX 9 12 2 0
BITMAP
3f80
3f80
3000
2000
6000
7e00
7e00
6000
6000
c000
c000
c000
ENDCHAR
STARTCHAR G
ENCODING 71
SWIDTH 702 0
DWIDTH 12 0
BBX 11 12 2 0
BITMAP
07c0
1fe0
3820
7000
6000
c000
c0c0
c0c0
c080
e180
7f80
3f00
ENDCHAR
STARTCHAR H
ENCODING 72
SWIDTH 735 0
DWIDTH 12 0
BBX 12 12 1 0
BITMAP
3030
3030
3020
3060
2060
7fe0
7fe0
6040
60c0
40c0
c0c0
c0c0
ENDCHAR
STARTCHAR I
ENCODING 73
SWIDTH 289 0
DWIDTH 5 0
BBX 4 12 2 0
BITMAP
30
30
30
60
60
60
60
60
60
c0
c0
c0
ENDCHAR
STARTCHAR J
ENCODING 74
SWIDTH 408 0
DWIDTH 7 0
BBX 8 15 0 -3
BITMAP
03
03
03
06
06
06
06
06
0c
0c
0c
0c
18
f8
f0
ENDCHAR
STARTCHAR K
ENCODING 75
SWIDTH 635 0
DWIDTH 11 0
BBX 11 12 1 0
BITMAP
38e0
31c0
3380
3700
2c00
7800
7c00
6c00
6600
4700
c380
c1c0
ENDCHAR
STARTCHAR L
ENCODING 76
SWIDTH 545 0
DWIDTH 9 0
BBX 8 12 1 0
BITMAP
38
30
30
30
20
60
60
60
40
40
ff
ff
ENDCHAR
STARTCHAR M
ENCODING 77
SWIDTH 828 0
DWIDTH 14 0
BBX 13 12 2 0
BITMAP
3838
3838
2878
2c50
6cf0
6cb0
6db0
6d30
4f20
c660
c660
c060
ENDCHAR
STARTCHAR N
ENCODING 78
SWIDTH 741 0
DWIDTH 13 0
BBX 12 12 2 0
BITMAP
3830
3830
3820
2c20
2c60
6660
6660
6340
4340
41c0
c1c0
c1c0
ENDCHAR
STARTCHAR O
ENCODING 79
SWIDTH 777 0
DWIDTH 13 0
BBX 12 12 2 0
BITMAP
07c0
1ff0
3870
7030
6030
e030
c030
c070
c060
e1c0
7f80
3e00
ENDCHAR
STARTCHAR P
ENCODING 80
SWIDTH 575 0
DWIDTH 10 0
BBX 9 12 2 0
BITMAP
3f00
3f80
3180
2180
6180
6300
7e00
7c00
6000
c000
c000
c000
ENDCHAR
STARTCHAR Q
ENCODING 81
SWIDTH 777 0
DWIDTH 13 0
BBX 12 15 2 -3
BITMAP
07c0
1fe0
3870
7030
6030
e030
c030
c070
c060
e1c0
7f80
3f00
0380
01f0
0060
ENDCHAR
STARTCHAR R
ENCODING 82
SWIDTH 632 0
DWIDTH 11 0
BBX 9 12 2 0
BITMAP
3f00
3f80
3180
2180
6100
6200
7c00
7c00
6600
c600
c300
c380
ENDCHAR
STARTCHAR S
ENCODING 83
SWIDTH 553 0
DWIDTH 9 0
BBX 10 12 1 0
BITMAP
0f80
1fc0
3840
3000
3800
1e00
0f00
0300
0380
8300
ff00
7e00
ENDCHAR
STARTCHAR T
ENCODING 84
SWIDTH 623 0
DWIDTH 11 0
BBX 11 12 2 0
BITMAP
ffe0
ffe0
0c00
0c00
0c00
0c00
1800
1800
1800
1800
1800
3000
ENDCHAR
STARTCHAR U
ENCODING 85
SWIDTH 693 0
DWIDTH 12 0
BBX 10 12 2 0
BITMAP
30c0
60c0
60c0
6080
6180
6180
c180
c100
c100
e300
fe00
7c00
ENDCHAR
STARTCHAR V
ENCODING 86
SWIDTH 687 0
DWIDTH 12 0
BBX 11 12 3 0
BITMAP
c060
c0c0
c0c0
6180
6180
6300
6200
6600
3c00
3c00
3800
3800
ENDCHAR
STARTCHAR W
ENCODING 87
SWIDTH 886 0
DWIDTH 15 0
BBX 15 12 3 0
BITMAP
c386
c38c
c78c
c798
c598
cdb0
c9b0
d9e0
d1e0
71c0
61c0
6180
ENDCHAR
STARTCHAR X
ENCODING 88
SWIDTH 620 0
DWIDTH 11 0
BBX 12 12 0 0
BITMAP
3830
1860
0cc0
0d80
0700
0600
0f00
0f00
1b80
3180
6180
c0c0
ENDCHAR
STARTCHAR Y
ENCODING 89
SWIDTH 608 0
DWIDTH 10 0
BBX 10 12 3 0
BITMAP
c1c0
6180
6300
7700
3e00
3c00
1800
1800
3000
3000
3000
3000
ENDCHAR
STARTCHAR Z
ENCODING 90
SWIDTH 578 0
DWIDTH 10 0
BBX 11 12 1 0
BITMAP
1fe0
1fe0
00c0
0180
0300
0600
0c00
1800
3000
6000
ff80
ff80
ENDCHAR
STARTCHAR bracketleft
ENCODING 91
SWIDTH 325 0
DWIDTH 6 0
BBX 6 15 1 -3
BITMAP
1c
1c
30
30
20
20
20
60
60
40
40
40
c0
e0
e0
ENDCHAR
STARTCHAR backslash
ENCODING 92
SWIDTH 482 0
DWIDTH 8 0
BBX 5 15 3 -3
BITMAP
c0
c0
c0
40
60
60
60
20
30
30
30
10
18
18
18
ENDCHAR
STARTCHAR bracketright
ENCODING 93
SWIDTH 325 0
DWIDTH 6 0
BBX 6 15 1 -3
BITMAP
1c
1c
0c
08
08
08
18
18
10
10
10
30
30
e0
e0
ENDCHAR
STARTCHAR asciicircum
ENCODING 94
SWIDTH 633 0
DWIDTH 11 0
BBX 10 11 1 2
BITMAP
0200
0200
0700
0700
0d00
1d00
1980
3080
7080
60c0
c0c0
ENDCHAR
STARTCHAR underscore
ENCODING 95
SWIDTH 500 0
DWIDTH 9 0
BBX 7 2 1 -1
BITMAP
fe
fe
ENDCHAR
STARTCHAR grave
ENCODING 96
SWIDTH 572 0
DWIDTH 10 0
BBX 3 3 6 9
BITMAP
c0
40
60
ENDCHAR
STARTCHAR a
ENCODING 97
SWIDTH 608 0
DWIDTH 10 0
BBX 9 9 1 0
BITMAP
0f80
1f80
3180
6300
4700
c700
df00
ff00
7600
ENDCHAR
STARTCHAR b
ENCODING 98
SWIDTH 608 0
DWIDTH 10 0
BBX 9 12 2 0
BITMAP
1000
3000
3000
2700
3f80
7d80
7980
7100
6300
4600
fc00
f800
ENDCHAR
STARTCHAR c
ENCODING 99
SWIDTH 503 0
DWIDTH 9 0
BBX 8 9 1 0
BITMAP
0f
3f
70
60
c0
c0
c2
fe
78
ENDCHAR
STARTCHAR d
ENCODING 100
SWIDTH 608 0
DWIDTH 10 0
BBX 10 12 1 0
BITMAP
00c0
00c0
0080
0f80
1f80
3180
6380
4300
c700
cf00
ff00
7600
ENDCHAR
STARTCHAR e
ENCODING 101
SWIDTH 529 0
DWIDTH 9 0
BBX 8 9 1 0
BITMAP
0e
3f
62
66
fc
c0
c3
fe
7c
ENDCHAR
STARTCHAR f
ENCODING 102
SWIDTH 383 0
DWIDTH 6 0
BBX 8 16 1 -3
BITMAP
0f
1f
18
30
7c
7c
30
30
20
60
60
60
60
40
c0
c0
ENDCHAR
STARTCHAR g
ENCODING 103
SWIDTH 608 0
DWIDTH 10 0
BBX 10 12 1 -3
BITMAP
07c0
1fc0
3880
3080
6180
6380
6580
7d00
7300
8300
fe00
7c00
ENDCHAR
STARTCHAR h
ENCODING 104
SWIDTH 620 0
DWIDTH 11 0
BBX 9 12 2 0
BITMAP
1800
3000
3000
3780
2f80
7d80
7980
7100
6300
6300
c300
c300
ENDCHAR
STARTCHAR i
ENCODING 105
SWIDTH 289 0
DWIDTH 5 0
BBX 4 12 2 0
BITMAP
30
30
00
20
60
60
60
60
40
c0
c0
c0
ENDCHAR
STARTCHAR j
ENCODING 106
SWIDTH 325 0
DWIDTH 6 0
BBX 8 15 -1 -3
BITMAP
03
03
00
06
06
06
06
04
0c
0c
0c
0c
18
f0
e0
ENDCHAR
STARTCHAR k
ENCODING 107
SWIDTH 572 0
DWIDTH 10 0
BBX 9 12 2 0
BITMAP
1800
3000
3000
3380
2700
6e00
7c00
7800
5c00
4c00
c600
c300
ENDCHAR
STARTCHAR l
ENCODING 108
SWIDTH 289 0
DWIDTH 5 0
BBX 4 12 2 0
BITMAP
30
30
30
20
60
60
60
60
40
c0
c0
c0
ENDCHAR
STARTCHAR m
ENCODING 109
SWIDTH 934 0
DWIDTH 16 0
BBX 14 9 2 0
BITMAP
271c
6ffc
7d6c
7bcc
7388
6398
c318
c218
c618
ENDCHAR
STARTCHAR n
ENCODING 110
SWIDTH 620 0
DWIDTH 11 0
BBX 9 9 2 0
BITMAP
3780
2f80
7d80
7980
7100
6300
6300
c300
c300
ENDCHAR
STARTCHAR o
ENCODING 111
SWIDTH 566 0
DWIDTH 10 0
BBX 9 9 1 0
BITMAP
0f00
3f80
7180
6180
c180
c300
c700
fe00
7800
ENDCHAR
STARTCHAR p
ENCODING 112
SWIDTH 608 0
DWIDTH 10 0
BBX 10 12 1 -3
BITMAP
3380
3fc0
3cc0
38c0
3180
6180
6300
7e00
7c00
4000
c000
c000
ENDCHAR
STARTCHAR q
ENCODING 113
SWIDTH 608 0
DWIDTH 10 0
BBX 9 12 1 -3
BITMAP
0f80
1f80
3100
6300
4700
cf00
df00
fe00
7200
0600
0600
0600
ENDCHAR
STARTCHAR r
ENCODING 114
SWIDTH 478 0
DWIDTH 8 0
BBX 8 9 1 0
BITMAP
33
2f
7c
78
70
60
40
c0
c0
ENDCHAR
STARTCHAR s
ENCODING 115
SWIDTH 489 0
DWIDTH 8 0
BBX 7 9 1 0
BITMAP
1c
3e
32
30
18
1c
8c
fc
78
ENDCHAR
STARTCHAR t
ENCODING 116
SWIDTH 383 0
DWIDTH 7 0
BBX 5 11 2 0
BITMAP
20
20
f8
f8
60
60
60
40
c0
e0
70
ENDCHAR
STARTCHAR u
ENCODING 117
SWIDTH 620 0
DWIDTH 11 0
BBX 9 9 2 0
BITMAP
6180
6180
6300
6300
c700
cf00
df00
fa00
f600
ENDCHAR
STARTCHAR v
ENCODING 118
SWIDTH 545 0
DWIDTH 9 0
BBX 8 9 3 0
BITMAP
c3
c6
c6
cc
4c
58
70
70
60
ENDCHAR
STARTCHAR w
ENCODING 119
SWIDTH 795 0
DWIDTH 13 0
BBX 12 9 2 0
BITMAP
c630
ce30
ce60
de60
5ac0
5ac0
7380
7380
6300
ENDCHAR
STARTCHAR x
ENCODING 120
SWIDTH 541 0
DWIDTH 9 0
BBX 10 9 0 0
BITMAP
30c0
1980
1b00
0e00
0c00
1e00
3600
6300
c380
ENDCHAR
STARTCHAR y
ENCODING 121
SWIDTH 548 0
DWIDTH 9 0
BBX 10 12 2 -3
BITMAP
61c0
6380
6300
6600
6e00
6c00
3800
3800
3000
3000
6000
c000
ENDCHAR
STARTCHAR z
ENCODING 122
SWIDTH 536 0
DWIDTH 9 0
BBX 9 9 1 0
BITMAP
3f80
3f80
0700
0e00
1c00
3800
7000
ff00
ff00
ENDCHAR
STARTCHAR braceleft
ENCODING 123
SWIDTH 325 0
DWIDTH 6 0
BBX 6 15 1 -3
BITMAP
1c
1c
38
30
30
30
30
e0
e0
60
60
60
c0
e0
60
ENDCHAR
STARTCHAR bar
ENCODING 124
SWIDTH 233 0
DWIDTH 4 0
BBX 4 15 1 -3
BITMAP
30
30
30
20
20
20
60
60
60
40
40
40
c0
c0
c0
ENDCHAR
STARTCHAR braceright
ENCODING 125
SWIDTH 325 0
DWIDTH 6 0
BBX 6 15 0 -3
BITMAP
18
1c
0c
08
18
18
0c
0c
30
30
30
30
30
e0
e0
ENDCHAR
STARTCHAR asciitilde
ENCODING 126
SWIDTH 633 0
DWIDTH 11 0
BBX 10 4 1 3
BITMAP
7040
7cc0
cf80
8380
ENDCHAR
STARTCHAR nobreakspace
ENCODING 160
SWIDTH 316 0
DWIDTH 5 0
BBX 1 1 0 0
BITMAP
00
ENDCHAR
STARTCHAR Aogonek
ENCODING 161
SWIDTH 687 0
DWIDTH 12 0
BBX 11 15 0 -3
BITMAP
0380
0380
0780
0680
0cc0
18c0
18c0
3fc0
3fc0
60e0
6060
c060
0600
0800
0e00
ENDCHAR
STARTCHAR breve
ENCODING 162
SWIDTH 566 0
DWIDTH 10 0
BBX 6 3 5 9
BITMAP
84
c8
70
ENDCHAR
STARTCHAR Lstroke
ENCODING 163
SWIDTH 545 0
DWIDTH 9 0
BBX 9 12 0 0
BITMAP
1800
1800
1800
1e00
3c00
3000
f000
b000
2000
2000
7f80
7f80
ENDCHAR
STARTCHAR currency
ENCODING 164
SWIDTH 633 0
DWIDTH 11 0
BBX 13 10 0 1
BITMAP
7030
3778
1fe0
18c0
3040
30c0
3180
3fc0
6ee0
c040
ENDCHAR
STARTCHAR Lcaron
ENCODING 165
SWIDTH 600 0
DWIDTH 10 0
BBX 9 13 1 0
BITMAP
0180
3980
3180
3300
3000
2000
6000
6000
6000
4000
4000
ff00
ff00
ENDCHAR
STARTCHAR Sacute
ENCODING 166
SWIDTH 553 0
DWIDTH 9 0
BBX 10 16 1 0
BITMAP
00c0
0180
0300
0000
0f80
1fc0
3840
3000
3800
1e00
0f00
0300
0380
8300
ff00
7e00
ENDCHAR
STARTCHAR section
ENCODING 167
SWIDTH 633 0
DWIDTH 11 0
BBX 10 15 1 -3
BITMAP
0fc0
1f80
3800
3000
1800
3e00
6700
6180
7980
1f00
0600
0300
8700
ff00
7c00
ENDCHAR
STARTCHAR diaeresis
ENCODING 168
SWIDTH 566 0
DWIDTH 10 0
BBX 5 2 5 10
BITMAP
d8
d8
ENDCHAR
STARTCHAR Scaron
ENCODING 169
SWIDTH 553 0
DWIDTH 9 0
BBX 10 16 1 0
BITMAP
04c0
0380
0300
0000
0f80
1fc0
3840
3000
3800
1e00
0f00
0300
0380
8300
ff00
7e00
ENDCHAR
STARTCHAR Scedilla
ENCODING 170
SWIDTH 553 0
DWIDTH 9 0
BBX 10 15 1 -3
BITMAP
0f80
1fc0
3840
3000
3800
1e00
0f00
0300
0380
8300
ff00
7e00
0c00
0400
1c00
ENDCHAR
STARTCHAR Tcaron
ENCODING 171
SWIDTH 623 0
DWIDTH 11 0
BBX 11 16 2 0
BITMAP
0980
0700
0600
0000
ffe0
ffe0
0c00
0c00
0c00
0c00
1800
1800
1800
1800
1800
3000
ENDCHAR
STARTCHAR Zacute
ENCODING 172
SWIDTH 578 0
DWIDTH 10 0
BBX 11 16 1 0
BITMAP
0060
00c0
0180
0000
1fe0
1fe0
00c0
0180
0300
0600
0c00
1800
3000
6000
ff80
ff80
ENDCHAR
STARTCHAR hyphen
ENCODING 173
SWIDTH 313 0
DWIDTH 5 0
BBX 4 2 2 4
BITMAP
f0
f0
ENDCHAR
STARTCHAR Zcaron
ENCODING 174
SWIDTH 578 0
DWIDTH 10 0
BBX 11 16 1 0
BITMAP
0260
01c0
0180
0000
1fe0
1fe0
00c0
0180
0300
0600
0c00
1800
3000
6000
ff80
ff80
ENDCHAR
STARTCHAR Zabovedot
ENCODING 175
SWIDTH 578 0
DWIDTH 10 0
BBX 11 15 1 0
BITMAP
0180
0180
0000
1fe0
1fe0
00c0
0180
0300
0600
0c00
1800
3000
6000
ff80
ff80
ENDCHAR
STARTCHAR degree
ENCODING 176
SWIDTH 269 0
DWIDTH 5 0
BBX 3 3 3 9
BITMAP
e0
a0
e0
ENDCHAR
STARTCHAR aogonek
ENCODING 177
SWIDTH 608 0
DWIDTH 10 0
BBX 9 12 1 -3
BITMAP
0f80
1f80
3180
6300
4700
c700
df00
ff00
7600
0c00
1000
1c00
ENDCHAR
STARTCHAR ogonek
ENCODING 178
SWIDTH 566 0
DWIDTH 10 0
BBX 3 3 3 -3
BITMAP
60
80
e0
ENDCHAR
STARTCHAR lstroke
ENCODING 179
SWIDTH 289 0
DWIDTH 5 0
BBX 6 12 1 0
BITMAP
18
18
10
14
3c
30
f0
a0
20
60
60
60
ENDCHAR
STARTCHAR acute
ENCODING 180
SWIDTH 566 0
DWIDTH 10 0
BBX 4 3 6 9
BITMAP
30
60
c0
ENDCHAR
STARTCHAR lcaron
ENCODING 181
SWIDTH 540 0
DWIDTH 9 0
BBX 8 13 2 0
BITMAP
03
33
33
36
20
60
60
60
60
40
c0
c0
c0
ENDCHAR
STARTCHAR sacute
ENCODING 182
SWIDTH 489 0
DWIDTH 8 0
BBX 8 13 1 0
BITMAP
03
06
0c
00
1c
3e
32
30
18
1c
8c
fc
78
ENDCHAR
STARTCHAR caron
ENCODING 183
SWIDTH 568 0
DWIDTH 10 0
BBX 5 3 5 9
BITMAP
98
70
60
ENDCHAR
STARTCHAR cedilla
ENCODING 184
SWIDTH 566 0
DWIDTH 10 0
BBX 3 3 3 -3
BITMAP
60
20
e0
ENDCHAR
STARTCHAR scaron
ENCODING 185
SWIDTH 489 0
DWIDTH 8 0
BBX 8 13 1 0
BITMAP
13
0e
0c
00
1c
3e
32
30
18
1c
8c
fc
78
ENDCHAR
STARTCHAR scedilla
ENCODING 186
SWIDTH 489 0
DWIDTH 8 0
BBX 7 12 1 -3
BITMAP
1c
3e
32
30
18
1c
8c
fc
78
18
08
38
ENDCHAR
STARTCHAR tcaron
ENCODING 187
SWIDTH 540 0
DWIDTH 9 0
BBX 7 14 2 0
BITMAP
06
06
06
2c
20
f8
f8
60
60
60
40
c0
e0
70
ENDCHAR
STARTCHAR zacute
ENCODING 188
SWIDTH 536 0
DWIDTH 9 0
BBX 9 13 1 0
BITMAP
0180
0300
0600
0000
3f80
3f80
0700
0e00
1c00
3800
7000
ff00
ff00
ENDCHAR
STARTCHAR doubleacute
ENCODING 189
SWIDTH 566 0
DWIDTH 10 0
BBX 6 3 5 9
BITMAP
3c
78
f0
ENDCHAR
STARTCHAR zcaron
ENCODING 190
SWIDTH 536 0
DWIDTH 9 0
BBX 9 13 1 0
BITMAP
0980
0700
0600
0000
3f80
3f80
0700
0e00
1c00
3800
7000
ff00
ff00
ENDCHAR
STARTCHAR zabovedot
ENCODING 191
SWIDTH 536 0
DWIDTH 9 0
BBX 9 12 1 0
BITMAP
0600
0600
0000
3f80
3f80
0700
0e00
1c00
3800
7000
ff00
ff00
ENDCHAR
STARTCHAR Racute
ENCODING 192
SWIDTH 632 0
DWIDTH 11 0
BBX 9 16 2 0
BITMAP
0180
0300
0600
0000
3f00
3f80
3180
2180
6100
6200
7c00
7c00
6600
c600
c300
c380
ENDCHAR
STARTCHAR Aacute
ENCODING 193
SWIDTH 687 0
DWIDTH 12 0
BBX 11 16 0 0
BITMAP
0060
00c0
0180
0000
0380
0380
0780
0680
0cc0
18c0
18c0
3fc0
3fc0
60e0
6060
c060
ENDCHAR
STARTCHAR Acircumflex
ENCODING 194
SWIDTH 687 0
DWIDTH 12 0
BBX 11 16 0 0
BITMAP
0180
0380
0640
0000
0380
0380
0780
0680
0cc0
18c0
18c0
3fc0
3fc0
60e0
6060
c060
ENDCHAR
STARTCHAR Abreve
ENCODING 195
SWIDTH 687 0
DWIDTH 12 0
BBX 11 16 0 0
BITMAP
0420
0640
0380
0000
0380
0380
0780
0680
0cc0
18c0
18c0
3fc0
3fc0
60e0
6060
c060
ENDCHAR
STARTCHAR Adiaeresis
ENCODING 196
SWIDTH 687 0
DWIDTH 12 0
BBX 11 15 0 0
BITMAP
06c0
06c0
0000
0380
0380
0780
0680
0cc0
18c0
18c0
3fc0
3fc0
60e0
6060
c060
ENDCHAR
STARTCHAR Lacute
ENCODING 197
SWIDTH 545 0
DWIDTH 9 0
BBX 8 16 1 0
BITMAP
06
0c
18
00
38
30
30
30
20
60
60
60
40
40
ff
ff
ENDCHAR
STARTCHAR Cacute
ENCODING 198
SWIDTH 679 0
DWIDTH 12 0
BBX 11 16 2 0
BITMAP
0060
00c0
0180
0000
07c0
1fe0
3820
7000
6000
e000
c000
c000
c000
e080
7f80
3e00
ENDCHAR
STARTCHAR Ccedilla
ENCODING 199
SWIDTH 679 0
DWIDTH 12 0
BBX 11 15 2 -3
BITMAP
07c0
1fe0
3820
7000
6000
e000
c000
c000
c000
e080
7f80
3e00
1000
0800
3800
ENDCHAR
STARTCHAR Ccaron
ENCODING 200
SWIDTH 679 0
DWIDTH 12 0
BBX 11 16 2 0
BITMAP
0260
01c0
0180
0000
07c0
1fe0
3820
7000
6000
e000
c000
c000
c000
e080
7f80
3e00
ENDCHAR
STARTCHAR Eacute
ENCODING 201
SWIDTH 547 0
DWIDTH 9 0
BBX 9 16 2 0
BITMAP
0300
0600
0c00
0000
3f80
3f80
3000
2000
6000
7e00
7e00
6000
4000
c000
fe00
fe00
ENDCHAR
STARTCHAR Eogonek
ENCODING 202
SWIDTH 547 0
DWIDTH 9 0
BBX 9 15 2 -3
BITMAP
3f80
3f80
3000
2000
6000
7e00
7e00
6000
4000
c000
fe00
fe00
0c00
1000
1c00
ENDCHAR
STARTCHAR Ediaeresis
ENCODING 203
SWIDTH 547 0
DWIDTH 9 0
BBX 9 15 2 0
BITMAP
1b00
1b00
0000
3f80
3f80
3000
2000
6000
7e00
7e00
6000
4000
c000
fe00
fe00
ENDCHAR
STARTCHAR Ecaron
ENCODING 204
SWIDTH 547 0
DWIDTH 9 0
BBX 9 16 2 0
BITMAP
0980
0700
0600
0000
3f80
3f80
3000
2000
6000
7e00
7e00
6000
4000
c000
fe00
fe00
ENDCHAR
STARTCHAR Iacute
ENCODING 205
SWIDTH 289 0
DWIDTH 5 0
BBX 6 16 2 0
BITMAP
0c
18
30
00
30
30
30
60
60
60
60
60
60
c0
c0
c0
ENDCHAR
STARTCHAR Icircumflex
ENCODING 206
SWIDTH 289 0
DWIDTH 5 0
BBX 6 16 2 0
BITMAP
18
38
64
00
30
30
30
60
60
60
60
60
60
c0
c0
c0
ENDCHAR
STARTCHAR Dcaron
ENCODING 207
SWIDTH 743 0
DWIDTH 13 0
BBX 12 16 1 0
BITMAP
04c0
0380
0300
0000
3fc0
3fe0
3070
3030
2030
6030
6030
6060
40e0
41c0
ff80
fe00
ENDCHAR
STARTCHAR Dstroke
ENCODING 208
SWIDTH 743 0
DWIDTH 13 0
BBX 12 12 1 0
BITMAP
1fc0
1fe0
3870
3030
3030
fc30
fc30
3060
60e0
61c0
7f80
7f00
ENDCHAR
STARTCHAR Nacute
ENCODING 209
SWIDTH 741 0
DWIDTH 13 0
BBX 12 16 2 0
BITMAP
0060
00c0
0180
0000
3830
3830
3820
2c20
2c60
6660
6660
6340
4340
41c0
c1c0
c1c0
ENDCHAR
STARTCHAR Ncaron
ENCODING 210
SWIDTH 741 0
DWIDTH 13 0
BBX 12 16 2 0
BITMAP
0260
01c0
0180
0000
3830
3830
3820
2c20
2c60
6660
6660
6340
4340
41c0
c1c0
c1c0
ENDCHAR
STARTCHAR Oacute
ENCODING 211
SWIDTH 777 0
DWIDTH 13 0
BBX 12 16 2 0
BITMAP
00c0
0180
0300
0000
07c0
1ff0
3870
7030
6030
e030
c030
c070
c060
e1c0
7f80
3e00
ENDCHAR
STARTCHAR Ocircumflex
ENCODING 212
SWIDTH 777 0
DWIDTH 13 0
BBX 12 16 2 0
BITMAP
0180
0380
0640
0000
07c0
1ff0
3870
7030
6030
e030
c030
c070
c060
e1c0
7f80
3e00
ENDCHAR
STARTCHAR Odoubleacute
ENCODING 213
SWIDTH 777 0
DWIDTH 13 0
BBX 12 16 2 0
BITMAP
00f0
01e0
03c0
0000
07c0
1ff0
3870
7030
6030
e030
c030
c070
c060
e1c0
7f80
3e00
ENDCHAR
STARTCHAR Odiaeresis
ENCODING 214
SWIDTH 777 0
DWIDTH 13 0
BBX 12 15 2 0
BITMAP
06c0
06c0
0000
07c0
1ff0
3870
7030
6030
e030
c030
c070
c060
e1c0
7f80
3e00
ENDCHAR
STARTCHAR multiply
ENCODING 215
SWIDTH 633 0
DWIDTH 11 0
BBX 11 10 1 0
BITMAP
6060
30e0
1980
1b00
0e00
0e00
1f00
3380
e180
c0c0
ENDCHAR
STARTCHAR Rcaron
ENCODING 216
SWIDTH 632 0
DWIDTH 11 0
BBX 9 16 2 0
BITMAP
0980
0700
0600
0000
3f00
3f80
3180
2180
6100
6200
7c00
7c00
6600
c600
c300
c380
ENDCHAR
STARTCHAR Uring
ENCODING 217
SWIDTH 693 0
DWIDTH 12 0
BBX 10 16 2 0
BITMAP
0e00
0a00
0e00
0000
30c0
60c0
60c0
6080
6180
6180
c180
c100
c100
e300
fe00
7c00
ENDCHAR
STARTCHAR Uacute
ENCODING 218
SWIDTH 693 0
DWIDTH 12 0
BBX 10 16 2 0
BITMAP
0180
0300
0600
0000
30c0
60c0
60c0
6080
6180
6180
c180
c100
c100
e300
fe00
7c00
ENDCHAR
STARTCHAR Udoubleacute
ENCODING 219
SWIDTH 693 0
DWIDTH 12 0
BBX 10 16 2 0
BITMAP
03c0
0780
0f00
0000
30c0
60c0
60c0
6080
6180
6180
c180
c100
c100
e300
fe00
7c00
ENDCHAR
STARTCHAR Udiaeresis
ENCODING 220
SWIDTH 693 0
DWIDTH 12 0
BBX 10 15 2 0
BITMAP
1b00
1b00
0000
30c0
60c0
60c0
6080
6180
6180
c180
c100
c100
e300
fe00
7c00
ENDCHAR
STARTCHAR Yacute
ENCODING 221
SWIDTH 608 0
DWIDTH 10 0
BBX 10 16 3 0
BITMAP
0300
0600
0c00
0000
c1c0
6180
6300
7700
3e00
3c00
1800
1800
3000
3000
3000
3000
ENDCHAR
STARTCHAR Tcedilla
ENCODING 222
SWIDTH 623 0
DWIDTH 11 0
BBX 11 15 2 -3
BITMAP
ffe0
ffe0
0c00
0c00
0c00
0c00
1800
1800
1800
1800
1800
3000
0600
0200
0e00
ENDCHAR
STARTCHAR ssharp
ENCODING 223
SWIDTH 595 0
DWIDTH 10 0
BBX 9 16 1 -3
BITMAP
0f00
1f80
1980
1300
3600
3c00
3c00
2e00
2300
6180
6180
6f80
7f00
4000
c000
c000
ENDCHAR
STARTCHAR racute
ENCODING 224
SWIDTH 478 0
DWIDTH 8 0
BBX 8 13 1 0
BITMAP
03
06
0c
00
33
2f
7c
78
70
60
40
c0
c0
ENDCHAR
STARTCHAR aacute
ENCODING 225
SWIDTH 608 0
DWIDTH 10 0
BBX 9 13 1 0
BITMAP
0180
0300
0600
0000
0f80
1f80
3180
6300
4700
c700
df00
ff00
7600
ENDCHAR
STARTCHAR acircumflex
ENCODING 226
SWIDTH 608 0
DWIDTH 10 0
BBX 9 13 1 0
BITMAP
0300
0700
0c80
0000
0f80
1f80
3180
6300
4700
c700
df00
ff00
7600
ENDCHAR
STARTCHAR abreve
ENCODING 227
SWIDTH 608 0
DWIDTH 10 0
BBX 9 13 1 0
BITMAP
1080
1900
0e00
0000
0f80
1f80
3180
6300
4700
c700
df00
ff00
7600
ENDCHAR
STARTCHAR adiaeresis
ENCODING 228
SWIDTH 608 0
DWIDTH 10 0
BBX 9 12 1 0
BITMAP
0d80
0d80
0000
0f80
1f80
3180
6300
4700
c700
df00
ff00
7600
ENDCHAR
STARTCHAR lacute
ENCODING 229
SWIDTH 289 0
DWIDTH 5 0
BBX 7 16 2 0
BITMAP
06
0c
18
00
30
30
30
20
60
60
60
60
40
c0
c0
c0
ENDCHAR
STARTCHAR cacute
ENCODING 230
SWIDTH 503 0
DWIDTH 9 0
BBX 8 13 1 0
BITMAP
03
06
0c
00
0f
3f
70
60
c0
c0
c2
fe
78
ENDCHAR
STARTCHAR ccedilla
ENCODING 231
SWIDTH 503 0
DWIDTH 9 0
BBX 8 12 1 -3
BITMAP
0f
3f
70
60
c0
c0
c2
fe
78
20
10
70
ENDCHAR
STARTCHAR ccaron
ENCODING 232
SWIDTH 503 0
DWIDTH 9 0
BBX 8 13 1 0
BITMAP
13
0e
0c
00
0f
3f
70
60
c0
c0
c2
fe
78
ENDCHAR
STARTCHAR eacute
ENCODING 233
SWIDTH 529 0
DWIDTH 9 0
BBX 8 13 1 0
BITMAP
03
06
0c
00
0e
3f
62
66
fc
c0
c3
fe
7c
ENDCHAR
STARTCHAR eogonek
ENCODING 234
SWIDTH 529 0
DWIDTH 9 0
BBX 8 12 1 -3
BITMAP
0e
3f
62
66
fc
c0
c3
fe
7c
18
20
38
ENDCHAR
STARTCHAR ediaeresis
ENCODING 235
SWIDTH 529 0
DWIDTH 9 0
BBX 8 12 1 0
BITMAP
1b
1b
00
0e
3f
62
66
fc
c0
c3
fe
7c
ENDCHAR
STARTCHAR ecaron
ENCODING 236
SWIDTH 529 0
DWIDTH 9 0
BBX 8 13 1 0
BITMAP
13
0e
0c
00
0e
3f
62
66
fc
c0
c3
fe
7c
ENDCHAR
STARTCHAR iacute
ENCODING 237
SWIDTH 289 0
DWIDTH 5 0
BBX 6 13 2 0
BITMAP
0c
18
30
00
60
60
60
60
40
40
c0
c0
c0
ENDCHAR
STARTCHAR icircumflex
ENCODING 238
SWIDTH 289 0
DWIDTH 5 0
BBX 5 13 2 0
BITMAP
30
70
c8
00
60
60
60
60
40
40
c0
c0
c0
ENDCHAR
STARTCHAR dcaron
ENCODING 239
SWIDTH 840 0
DWIDTH 14 0
BBX 14 13 1 0
BITMAP
000c
00cc
00cc
0098
0f80
1f80
3180
6380
4300
c700
cf00
ff00
7600
ENDCHAR
STARTCHAR dstroke
ENCODING 240
SWIDTH 780 0
DWIDTH 13 0
BBX 13 12 1 0
BITMAP
00c0
0040
7ff8
0f80
1f80
3180
6380
4300
c700
cf00
ff00
7600
ENDCHAR
STARTCHAR nacute
ENCODING 241
SWIDTH 620 0
DWIDTH 11 0
BBX 9 13 2 0
BITMAP
0180
0300
0600
0000
3780
2f80
7d80
7980
7100
6300
6300
c300
c300
ENDCHAR
STARTCHAR ncaron
ENCODING 242
SWIDTH 620 0
DWIDTH 11 0
BBX 9 13 2 0
BITMAP
0980
0700
0600
0000
3780
2f80
7d80
7980
7100
6300
6300
c300
c300
ENDCHAR
STARTCHAR oacute
ENCODING 243
SWIDTH 566 0
DWIDTH 10 0
BBX 9 13 1 0
BITMAP
0180
0300
0600
0000
0f00
3f80
7180
6180
c180
c300
c700
fe00
7800
ENDCHAR
STARTCHAR ocircumflex
ENCODING 244
SWIDTH 566 0
DWIDTH 10 0
BBX 9 13 1 0
BITMAP
0600
0e00
1900
0000
0f00
3f80
7180
6180
c180
c300
c700
fe00
7800
ENDCHAR
STARTCHAR odoubleacute
ENCODING 245
SWIDTH 566 0
DWIDTH 10 0
BBX 10 13 1 0
BITMAP
03c0
0780
0f00
0000
0f00
3f80
7180
6180
c180
c300
c700
fe00
7800
ENDCHAR
STARTCHAR odiaeresis
ENCODING 246
SWIDTH 566 0
DWIDTH 10 0
BBX 9 12 1 0
BITMAP
0d80
0d80
0000
0f00
3f80
7180
6180
c180
c300
c700
fe00
7800
ENDCHAR
STARTCHAR division
ENCODING 247
SWIDTH 633 0
DWIDTH 11 0
BBX 10 9 1 0
BITMAP
0600
0400
0000
ffc0
ffc0
0000
0000
0800
1800
ENDCHAR
STARTCHAR rcaron
ENCODING 248
SWIDTH 478 0
DWIDTH 8 0
BBX 8 13 1 0
BITMAP
13
0e
0c
00
33
2f
7c
78
70
60
40
c0
c0
ENDCHAR
STARTCHAR uring
ENCODING 249
SWIDTH 620 0
DWIDTH 11 0
BBX 9 13 2 0
BITMAP
1c00
1400
1c00
0000
6180
6180
6300
6300
c700
cf00
df00
fa00
f600
ENDCHAR
STARTCHAR uacute
ENCODING 250
SWIDTH 620 0
DWIDTH 11 0
BBX 9 13 2 0
BITMAP
0180
0300
0600
0000
6180
6180
6300
6300
c700
cf00
df00
fa00
f600
ENDCHAR
STARTCHAR udoubleacute
ENCODING 251
SWIDTH 620 0
DWIDTH 11 0
BBX 9 13 2 0
BITMAP
0780
0f00
1e00
0000
6180
6180
6300
6300
c700
cf00
df00
fa00
f600
ENDCHAR
STARTCHAR udiaeresis
ENCODING 252
SWIDTH 620 0
DWIDTH 11 0
BBX 9 12 2 0
BITMAP
1b00
1b00
0000
6180
6180
6300
6300
c700
cf00
df00
fa00
f600
ENDCHAR
STARTCHAR yacute
ENCODING 253
SWIDTH 548 0
DWIDTH 9 0
BBX 10 16 2 -3
BITMAP
0300
0600
0c00
0000
61c0
6380
6300
6600
6e00
6c00
3800
3800
3000
3000
6000
c000
ENDCHAR
STARTCHAR tcedilla
ENCODING 254
SWIDTH 383 0
DWIDTH 7 0
BBX 5 14 2 -3
BITMAP
20
20
f8
f8
60
60
60
40
c0
e0
70
30
10
70
ENDCHAR
STARTCHAR abovedot
ENCODING 255
SWIDTH 566 0
DWIDTH 10 0
BBX 2 2 6 10
BITMAP
c0
c0
ENDCHAR
ENDFONT
